<mxfile host="app.diagrams.net" agent="Mozilla/5.0 (Windows NT 10.0; Win64; x64) AppleWebKit/537.36 (KHTML, like Gecko) Chrome/133.0.0.0 Safari/537.36" version="26.1.0">
  <diagram name="Page-1" id="a1GlDdhW5PUBSnx3r_3G">
    <mxGraphModel dx="3056" dy="1188" grid="1" gridSize="10" guides="1" tooltips="1" connect="1" arrows="1" fold="1" page="1" pageScale="1" pageWidth="850" pageHeight="1100" math="0" shadow="0">
      <root>
        <mxCell id="0" />
        <mxCell id="1" parent="0" />
        <mxCell id="DPknEoa0x_ax2zzJC6j7-1" value="&lt;u&gt;&lt;b style=&quot;&quot;&gt;FUNCTIONAL REQUIREMENTS&lt;/b&gt;&lt;br&gt;&lt;/u&gt;&lt;br&gt;1.&amp;nbsp; User should be able to book tickets.&lt;div&gt;2. User should be able to view a show/movie.&lt;/div&gt;&lt;div&gt;3. User should be able to search for any event/show.&lt;/div&gt;" style="rounded=0;whiteSpace=wrap;html=1;" vertex="1" parent="1">
          <mxGeometry x="-270" y="80" width="330" height="110" as="geometry" />
        </mxCell>
        <mxCell id="DPknEoa0x_ax2zzJC6j7-2" value="&lt;b&gt;&lt;i&gt;&lt;u&gt;BOOK MY SHOW / TICKET MASTER&lt;/u&gt;&lt;/i&gt;&lt;/b&gt;" style="rounded=1;whiteSpace=wrap;html=1;" vertex="1" parent="1">
          <mxGeometry x="350" y="10" width="250" height="60" as="geometry" />
        </mxCell>
        <mxCell id="DPknEoa0x_ax2zzJC6j7-3" value="&lt;u&gt;&lt;b style=&quot;&quot;&gt;NON-FUNCTIONAL REQUIREMENTS&lt;/b&gt;&lt;br&gt;&lt;/u&gt;&lt;br&gt;1. CAP - Consistent for ticket booking.&lt;div&gt;2. CAP - Available for viewing a show.&lt;/div&gt;&lt;div&gt;3. Low Latency- For searching events.&lt;/div&gt;" style="rounded=0;whiteSpace=wrap;html=1;" vertex="1" parent="1">
          <mxGeometry x="-270" y="240" width="330" height="110" as="geometry" />
        </mxCell>
        <mxCell id="DPknEoa0x_ax2zzJC6j7-5" value="&lt;b&gt;&lt;u&gt;ENTITIES&lt;/u&gt;&lt;/b&gt;" style="rounded=0;whiteSpace=wrap;html=1;" vertex="1" parent="1">
          <mxGeometry x="425" y="105" width="105" height="25" as="geometry" />
        </mxCell>
        <mxCell id="DPknEoa0x_ax2zzJC6j7-6" value="&lt;b&gt;&lt;u&gt;USER&lt;/u&gt;&lt;/b&gt;&lt;div&gt;&lt;b&gt;&lt;br&gt;&lt;/b&gt;&lt;/div&gt;&lt;div&gt;id&lt;br&gt;name&lt;/div&gt;&lt;div&gt;number&lt;/div&gt;&lt;div&gt;email&lt;/div&gt;&lt;div&gt;&lt;br&gt;&lt;/div&gt;" style="rounded=0;whiteSpace=wrap;html=1;" vertex="1" parent="1">
          <mxGeometry x="360" y="150" width="80" height="120" as="geometry" />
        </mxCell>
        <mxCell id="DPknEoa0x_ax2zzJC6j7-8" value="&lt;b&gt;&lt;u&gt;EVENT&lt;/u&gt;&lt;/b&gt;&lt;div&gt;&lt;b&gt;&lt;u&gt;&lt;br&gt;&lt;/u&gt;&lt;/b&gt;&lt;/div&gt;&lt;div&gt;id&lt;/div&gt;&lt;div&gt;name&lt;/div&gt;&lt;div&gt;genre&lt;/div&gt;&lt;div&gt;language&lt;/div&gt;" style="rounded=0;whiteSpace=wrap;html=1;" vertex="1" parent="1">
          <mxGeometry x="470" y="150" width="80" height="120" as="geometry" />
        </mxCell>
        <mxCell id="DPknEoa0x_ax2zzJC6j7-9" value="&lt;b&gt;&lt;u&gt;API&#39;s&lt;/u&gt;&lt;/b&gt;" style="rounded=0;whiteSpace=wrap;html=1;" vertex="1" parent="1">
          <mxGeometry x="-240" y="400" width="120" height="60" as="geometry" />
        </mxCell>
        <mxCell id="DPknEoa0x_ax2zzJC6j7-11" value="GET-&amp;nbsp; /movie?id&lt;br&gt;&lt;span style=&quot;background-color: transparent; color: light-dark(rgb(0, 0, 0), rgb(255, 255, 255));&quot;&gt;Response:&lt;/span&gt;&lt;div&gt;{&lt;/div&gt;&lt;div style=&quot;text-align: center;&quot;&gt;&lt;span style=&quot;background-color: transparent; color: light-dark(rgb(0, 0, 0), rgb(255, 255, 255));&quot;&gt;id: &quot;&quot;,&lt;/span&gt;&lt;/div&gt;&lt;div style=&quot;text-align: center;&quot;&gt;&lt;span style=&quot;background-color: transparent; color: light-dark(rgb(0, 0, 0), rgb(255, 255, 255));&quot;&gt;&amp;nbsp; &amp;nbsp; &amp;nbsp;Name:&quot;&quot;,&lt;/span&gt;&lt;/div&gt;&lt;div style=&quot;text-align: center;&quot;&gt;&lt;span style=&quot;background-color: transparent; color: light-dark(rgb(0, 0, 0), rgb(255, 255, 255));&quot;&gt;Genre&lt;/span&gt;&lt;/div&gt;&lt;div&gt;}&lt;/div&gt;&lt;div&gt;&lt;br&gt;&lt;/div&gt;&lt;div&gt;&lt;br&gt;&lt;/div&gt;&lt;div&gt;&lt;br&gt;&lt;/div&gt;&lt;div&gt;GET-&amp;nbsp; /search&lt;br&gt;Request:&lt;br&gt;{&lt;/div&gt;&lt;div&gt;&lt;span style=&quot;white-space: pre;&quot;&gt;&#x9;&lt;/span&gt;name:&quot;xyz&lt;br&gt;&lt;/div&gt;&lt;div&gt;}&lt;/div&gt;&lt;div&gt;&lt;br&gt;&lt;/div&gt;&lt;div&gt;Response:&lt;/div&gt;&lt;div&gt;{&lt;/div&gt;&lt;div&gt;&lt;span style=&quot;white-space: pre;&quot;&gt;&#x9;&lt;/span&gt;movieA: {},&lt;br&gt;&lt;/div&gt;&lt;div&gt;&lt;span style=&quot;white-space: pre;&quot;&gt;&#x9;&lt;/span&gt;movieB:{}&lt;/div&gt;&lt;div&gt;}&lt;/div&gt;&lt;div&gt;&lt;br&gt;&lt;/div&gt;&lt;div&gt;&lt;br&gt;&lt;/div&gt;&lt;div&gt;POST - /book/id&lt;/div&gt;&lt;div&gt;Request:{&lt;/div&gt;&lt;div&gt;&lt;span style=&quot;white-space: pre;&quot;&gt;&#x9;&lt;/span&gt;Seat no.&amp;nbsp;&lt;br&gt;&lt;/div&gt;&lt;div&gt;&lt;span style=&quot;white-space: pre;&quot;&gt;&#x9;&lt;/span&gt;Venue:&amp;nbsp;&lt;br&gt;&lt;/div&gt;&lt;div&gt;&lt;span style=&quot;white-space: pre;&quot;&gt;&#x9;&lt;/span&gt;Date:&lt;br&gt;&lt;/div&gt;&lt;div&gt;&lt;span style=&quot;white-space: pre;&quot;&gt;&#x9;&lt;/span&gt;time:&lt;br&gt;&lt;/div&gt;&lt;div&gt;&lt;span style=&quot;white-space: pre;&quot;&gt;&#x9;&lt;/span&gt;no_of_tickets:&lt;br&gt;&lt;/div&gt;&lt;div&gt;}&lt;/div&gt;" style="rounded=1;whiteSpace=wrap;html=1;align=left;" vertex="1" parent="1">
          <mxGeometry x="-272.5" y="480" width="185" height="500" as="geometry" />
        </mxCell>
        <mxCell id="DPknEoa0x_ax2zzJC6j7-13" value="&lt;b&gt;&lt;u&gt;BOOKING&lt;/u&gt;&lt;/b&gt;&lt;div&gt;&lt;b&gt;&lt;u&gt;&lt;br&gt;&lt;/u&gt;&lt;/b&gt;&lt;/div&gt;&lt;div&gt;id&lt;/div&gt;&lt;div&gt;userId&lt;/div&gt;&lt;div&gt;movie&lt;/div&gt;&lt;div&gt;tickets&lt;/div&gt;&lt;div&gt;&lt;br&gt;&lt;/div&gt;" style="rounded=0;whiteSpace=wrap;html=1;" vertex="1" parent="1">
          <mxGeometry x="580" y="150" width="80" height="120" as="geometry" />
        </mxCell>
        <mxCell id="DPknEoa0x_ax2zzJC6j7-14" value="&lt;b&gt;&lt;u&gt;VENUE&lt;/u&gt;&lt;/b&gt;&lt;div&gt;id&lt;/div&gt;&lt;div&gt;name&lt;/div&gt;&lt;div&gt;movies&lt;/div&gt;&lt;div&gt;startTime&lt;/div&gt;&lt;div&gt;endTime&lt;/div&gt;&lt;div&gt;gate&lt;/div&gt;" style="rounded=0;whiteSpace=wrap;html=1;" vertex="1" parent="1">
          <mxGeometry x="690" y="150" width="80" height="120" as="geometry" />
        </mxCell>
        <mxCell id="DPknEoa0x_ax2zzJC6j7-15" value="DEEP DIVE" style="rounded=1;whiteSpace=wrap;html=1;" vertex="1" parent="1">
          <mxGeometry x="360" y="350" width="120" height="60" as="geometry" />
        </mxCell>
        <mxCell id="DPknEoa0x_ax2zzJC6j7-16" value="&lt;b&gt;Event Service&lt;/b&gt;" style="rounded=1;whiteSpace=wrap;html=1;" vertex="1" parent="1">
          <mxGeometry x="380" y="700" width="120" height="60" as="geometry" />
        </mxCell>
        <mxCell id="DPknEoa0x_ax2zzJC6j7-17" value="&lt;b&gt;CLIENT&lt;/b&gt;&lt;div&gt;&lt;br&gt;&lt;div&gt;Website&lt;/div&gt;&lt;div&gt;Android&lt;/div&gt;&lt;div&gt;IOS&lt;/div&gt;&lt;/div&gt;" style="rounded=0;whiteSpace=wrap;html=1;" vertex="1" parent="1">
          <mxGeometry x="-70" y="690" width="100" height="70" as="geometry" />
        </mxCell>
        <mxCell id="DPknEoa0x_ax2zzJC6j7-19" value="&lt;b&gt;Database&lt;/b&gt;&lt;div&gt;&lt;b&gt;(&lt;/b&gt;postgreSQL&lt;b&gt;)&lt;/b&gt;&lt;/div&gt;" style="shape=cylinder3;whiteSpace=wrap;html=1;boundedLbl=1;backgroundOutline=1;size=15;" vertex="1" parent="1">
          <mxGeometry x="660" y="670" width="90" height="120" as="geometry" />
        </mxCell>
        <mxCell id="DPknEoa0x_ax2zzJC6j7-20" value="" style="endArrow=classic;html=1;rounded=0;exitX=1;exitY=0.5;exitDx=0;exitDy=0;entryX=0;entryY=0.5;entryDx=0;entryDy=0;entryPerimeter=0;" edge="1" parent="1" source="DPknEoa0x_ax2zzJC6j7-16" target="DPknEoa0x_ax2zzJC6j7-19">
          <mxGeometry width="50" height="50" relative="1" as="geometry">
            <mxPoint x="540" y="880" as="sourcePoint" />
            <mxPoint x="590" y="830" as="targetPoint" />
          </mxGeometry>
        </mxCell>
        <mxCell id="DPknEoa0x_ax2zzJC6j7-21" value="&lt;div&gt;view(eventId)&lt;/div&gt;" style="text;html=1;align=center;verticalAlign=middle;whiteSpace=wrap;rounded=0;" vertex="1" parent="1">
          <mxGeometry x="250" y="692.5" width="60" height="45" as="geometry" />
        </mxCell>
        <mxCell id="DPknEoa0x_ax2zzJC6j7-25" value="view" style="text;html=1;align=center;verticalAlign=middle;whiteSpace=wrap;rounded=0;rotation=-45;" vertex="1" parent="1">
          <mxGeometry x="160" y="580" width="50" height="40" as="geometry" />
        </mxCell>
        <mxCell id="DPknEoa0x_ax2zzJC6j7-27" value="&lt;b&gt;Search Service&lt;/b&gt;" style="rounded=1;whiteSpace=wrap;html=1;" vertex="1" parent="1">
          <mxGeometry x="390" y="570" width="120" height="60" as="geometry" />
        </mxCell>
        <mxCell id="DPknEoa0x_ax2zzJC6j7-29" value="Search" style="text;html=1;align=center;verticalAlign=middle;whiteSpace=wrap;rounded=0;rotation=-15;" vertex="1" parent="1">
          <mxGeometry x="250" y="600" width="60" height="30" as="geometry" />
        </mxCell>
        <mxCell id="DPknEoa0x_ax2zzJC6j7-30" value="&lt;b&gt;API GATEWAY&lt;/b&gt;&lt;br&gt;&lt;br&gt;Rate Liming&lt;div&gt;Authentication&lt;/div&gt;&lt;div&gt;Routing&lt;/div&gt;" style="rounded=1;whiteSpace=wrap;html=1;" vertex="1" parent="1">
          <mxGeometry x="80" y="530" width="120" height="370" as="geometry" />
        </mxCell>
        <mxCell id="DPknEoa0x_ax2zzJC6j7-31" value="" style="endArrow=classic;startArrow=classic;html=1;rounded=0;exitX=1;exitY=0.5;exitDx=0;exitDy=0;entryX=0.145;entryY=0;entryDx=0;entryDy=4.35;entryPerimeter=0;" edge="1" parent="1" source="DPknEoa0x_ax2zzJC6j7-27" target="DPknEoa0x_ax2zzJC6j7-19">
          <mxGeometry width="50" height="50" relative="1" as="geometry">
            <mxPoint x="420" y="880" as="sourcePoint" />
            <mxPoint x="470" y="830" as="targetPoint" />
          </mxGeometry>
        </mxCell>
        <mxCell id="DPknEoa0x_ax2zzJC6j7-34" value="" style="endArrow=classic;startArrow=classic;html=1;rounded=0;exitX=1.025;exitY=0.332;exitDx=0;exitDy=0;exitPerimeter=0;entryX=0;entryY=0.5;entryDx=0;entryDy=0;" edge="1" parent="1" source="DPknEoa0x_ax2zzJC6j7-30" target="DPknEoa0x_ax2zzJC6j7-27">
          <mxGeometry width="50" height="50" relative="1" as="geometry">
            <mxPoint x="213" y="592" as="sourcePoint" />
            <mxPoint x="387" y="529" as="targetPoint" />
            <Array as="points" />
          </mxGeometry>
        </mxCell>
        <mxCell id="DPknEoa0x_ax2zzJC6j7-35" value="" style="endArrow=classic;startArrow=classic;html=1;rounded=0;entryX=-0.033;entryY=0.519;entryDx=0;entryDy=0;entryPerimeter=0;" edge="1" parent="1" source="DPknEoa0x_ax2zzJC6j7-17" target="DPknEoa0x_ax2zzJC6j7-30">
          <mxGeometry width="50" height="50" relative="1" as="geometry">
            <mxPoint x="420" y="680" as="sourcePoint" />
            <mxPoint x="470" y="630" as="targetPoint" />
          </mxGeometry>
        </mxCell>
        <mxCell id="DPknEoa0x_ax2zzJC6j7-36" value="" style="endArrow=classic;startArrow=classic;html=1;rounded=0;exitX=0.975;exitY=0.543;exitDx=0;exitDy=0;exitPerimeter=0;entryX=0;entryY=0.5;entryDx=0;entryDy=0;" edge="1" parent="1" source="DPknEoa0x_ax2zzJC6j7-30" target="DPknEoa0x_ax2zzJC6j7-16">
          <mxGeometry width="50" height="50" relative="1" as="geometry">
            <mxPoint x="420" y="780" as="sourcePoint" />
            <mxPoint x="470" y="730" as="targetPoint" />
          </mxGeometry>
        </mxCell>
        <mxCell id="DPknEoa0x_ax2zzJC6j7-37" value="" style="endArrow=classic;startArrow=classic;html=1;rounded=0;exitX=1;exitY=0.75;exitDx=0;exitDy=0;" edge="1" parent="1" source="DPknEoa0x_ax2zzJC6j7-30" target="DPknEoa0x_ax2zzJC6j7-38">
          <mxGeometry width="50" height="50" relative="1" as="geometry">
            <mxPoint x="420" y="780" as="sourcePoint" />
            <mxPoint x="370" y="870" as="targetPoint" />
          </mxGeometry>
        </mxCell>
        <mxCell id="DPknEoa0x_ax2zzJC6j7-38" value="&lt;b&gt;Booking Service&lt;/b&gt;" style="rounded=1;whiteSpace=wrap;html=1;" vertex="1" parent="1">
          <mxGeometry x="380" y="820" width="120" height="60" as="geometry" />
        </mxCell>
        <mxCell id="DPknEoa0x_ax2zzJC6j7-39" value="" style="endArrow=classic;startArrow=classic;html=1;rounded=0;exitX=1;exitY=0.25;exitDx=0;exitDy=0;entryX=0.145;entryY=1;entryDx=0;entryDy=-4.35;entryPerimeter=0;" edge="1" parent="1" source="DPknEoa0x_ax2zzJC6j7-38" target="DPknEoa0x_ax2zzJC6j7-19">
          <mxGeometry width="50" height="50" relative="1" as="geometry">
            <mxPoint x="420" y="780" as="sourcePoint" />
            <mxPoint x="470" y="730" as="targetPoint" />
          </mxGeometry>
        </mxCell>
        <mxCell id="DPknEoa0x_ax2zzJC6j7-40" value="Transaction" style="text;html=1;align=center;verticalAlign=middle;whiteSpace=wrap;rounded=0;rotation=-15;" vertex="1" parent="1">
          <mxGeometry x="540" y="780" width="72.5" height="40" as="geometry" />
        </mxCell>
        <mxCell id="DPknEoa0x_ax2zzJC6j7-43" value="Book" style="text;html=1;align=center;verticalAlign=middle;whiteSpace=wrap;rounded=0;rotation=15;" vertex="1" parent="1">
          <mxGeometry x="250" y="790" width="60" height="30" as="geometry" />
        </mxCell>
        <mxCell id="DPknEoa0x_ax2zzJC6j7-46" value="" style="endArrow=classic;startArrow=classic;html=1;rounded=0;exitX=1;exitY=1;exitDx=0;exitDy=0;" edge="1" parent="1" source="DPknEoa0x_ax2zzJC6j7-38" target="DPknEoa0x_ax2zzJC6j7-47">
          <mxGeometry width="50" height="50" relative="1" as="geometry">
            <mxPoint x="500" y="850" as="sourcePoint" />
            <mxPoint x="560" y="850" as="targetPoint" />
          </mxGeometry>
        </mxCell>
        <mxCell id="DPknEoa0x_ax2zzJC6j7-47" value="&lt;b&gt;Ticket&amp;nbsp;&lt;/b&gt;&lt;div&gt;&lt;b&gt;Lock&lt;/b&gt;&lt;div&gt;&lt;b&gt;(Redis)&lt;/b&gt;&lt;/div&gt;&lt;/div&gt;" style="ellipse;whiteSpace=wrap;html=1;" vertex="1" parent="1">
          <mxGeometry x="540" y="880" width="80" height="70" as="geometry" />
        </mxCell>
        <mxCell id="DPknEoa0x_ax2zzJC6j7-49" value="ticketID: userID&amp;nbsp;&lt;div&gt;TTL: 10 mins&lt;/div&gt;" style="text;html=1;align=center;verticalAlign=middle;whiteSpace=wrap;rounded=0;" vertex="1" parent="1">
          <mxGeometry x="532.5" y="950" width="87.5" height="40" as="geometry" />
        </mxCell>
        <mxCell id="DPknEoa0x_ax2zzJC6j7-50" value="&lt;b&gt;TICKET&lt;/b&gt;&lt;div&gt;&lt;br&gt;&lt;/div&gt;&lt;div&gt;id&lt;/div&gt;&lt;div&gt;eventId&lt;/div&gt;&lt;div&gt;userId&lt;/div&gt;&lt;div&gt;seats&lt;/div&gt;&lt;div&gt;price&lt;/div&gt;&lt;div&gt;status:available,booked&lt;/div&gt;" style="whiteSpace=wrap;html=1;aspect=fixed;" vertex="1" parent="1">
          <mxGeometry x="520" y="280" width="150" height="150" as="geometry" />
        </mxCell>
        <mxCell id="DPknEoa0x_ax2zzJC6j7-51" value="REDIS" style="ellipse;whiteSpace=wrap;html=1;aspect=fixed;" vertex="1" parent="1">
          <mxGeometry x="540" y="650" width="60" height="60" as="geometry" />
        </mxCell>
        <mxCell id="DPknEoa0x_ax2zzJC6j7-53" value="" style="endArrow=classic;startArrow=classic;html=1;rounded=0;exitX=1;exitY=0;exitDx=0;exitDy=0;entryX=0;entryY=0.5;entryDx=0;entryDy=0;" edge="1" parent="1" source="DPknEoa0x_ax2zzJC6j7-16" target="DPknEoa0x_ax2zzJC6j7-51">
          <mxGeometry width="50" height="50" relative="1" as="geometry">
            <mxPoint x="420" y="650" as="sourcePoint" />
            <mxPoint x="538" y="670" as="targetPoint" />
          </mxGeometry>
        </mxCell>
        <mxCell id="DPknEoa0x_ax2zzJC6j7-54" value="Event Cache" style="text;html=1;align=center;verticalAlign=middle;whiteSpace=wrap;rounded=0;" vertex="1" parent="1">
          <mxGeometry x="465" y="660" width="65" height="30" as="geometry" />
        </mxCell>
        <mxCell id="DPknEoa0x_ax2zzJC6j7-55" value="&lt;b&gt;Elastic Search&lt;/b&gt;" style="ellipse;whiteSpace=wrap;html=1;aspect=fixed;" vertex="1" parent="1">
          <mxGeometry x="590" y="460" width="80" height="80" as="geometry" />
        </mxCell>
        <mxCell id="DPknEoa0x_ax2zzJC6j7-56" value="" style="endArrow=classic;startArrow=classic;html=1;rounded=0;entryX=0;entryY=1;entryDx=0;entryDy=0;exitX=1;exitY=0;exitDx=0;exitDy=0;" edge="1" parent="1" source="DPknEoa0x_ax2zzJC6j7-27" target="DPknEoa0x_ax2zzJC6j7-55">
          <mxGeometry width="50" height="50" relative="1" as="geometry">
            <mxPoint x="310" y="630" as="sourcePoint" />
            <mxPoint x="360" y="580" as="targetPoint" />
          </mxGeometry>
        </mxCell>
        <mxCell id="DPknEoa0x_ax2zzJC6j7-57" value="- index on name, description, venue etc..&amp;nbsp;" style="text;html=1;align=center;verticalAlign=middle;whiteSpace=wrap;rounded=0;" vertex="1" parent="1">
          <mxGeometry x="675" y="450" width="245" height="30" as="geometry" />
        </mxCell>
        <mxCell id="DPknEoa0x_ax2zzJC6j7-58" value="" style="curved=1;endArrow=classic;html=1;rounded=0;exitX=0.5;exitY=0;exitDx=0;exitDy=0;exitPerimeter=0;" edge="1" parent="1" source="DPknEoa0x_ax2zzJC6j7-19">
          <mxGeometry width="50" height="50" relative="1" as="geometry">
            <mxPoint x="680" y="600" as="sourcePoint" />
            <mxPoint x="650" y="530" as="targetPoint" />
            <Array as="points">
              <mxPoint x="730" y="600" />
              <mxPoint x="680" y="550" />
            </Array>
          </mxGeometry>
        </mxCell>
        <mxCell id="DPknEoa0x_ax2zzJC6j7-60" value="change data capture (CDC)" style="text;html=1;align=center;verticalAlign=middle;resizable=0;points=[];autosize=1;strokeColor=none;fillColor=none;" vertex="1" parent="1">
          <mxGeometry x="712.5" y="570" width="170" height="30" as="geometry" />
        </mxCell>
      </root>
    </mxGraphModel>
  </diagram>
</mxfile>
